<svg
  width="32"
  height="32"
  viewBox="0 0 32 32"
  fill="none"
  xmlns="http://www.w3.org/2000/svg"
>
  <path
    d="M15.7481 7.78492C15.8265 7.74794 15.9121 7.72876 15.9988 7.72876C16.0854 7.72876 16.171 7.74794 16.2494 7.78492L23.4153 11.1803L15.9973 15.0657L8.57935 11.1803L15.7481 7.78492Z"
    fill="#d0011b"
  />
  <path
    d="M16.5846 16.0792L23.9972 12.1963V20.0179C23.9971 20.1245 23.968 20.2291 23.9129 20.3203C23.8579 20.4116 23.7789 20.4861 23.6846 20.5358L16.5846 24.2728V16.0792Z"
    fill="#d0011b"
  />
  <path
    fill-rule="evenodd"
    clip-rule="evenodd"
    d="M15.4147 16.0793V24.2715L8.31647 20.5358C8.22212 20.4862 8.14313 20.4117 8.08804 20.3205C8.03296 20.2292 8.00386 20.1246 8.00391 20.018V12.1978L15.4147 16.0793Z"
    fill="#d0011b"
  />
  <path
    fill-rule="evenodd"
    clip-rule="evenodd"
    d="M8.97422 4.66404C14.1175 1.47143 20.9625 2.10736 25.4281 6.57255C29.8857 11.0302 30.5263 17.859 27.3514 22.9991L28.2113 23.8572L26.7086 24.0567L25.2048 24.2572L25.4043 22.7546L25.6038 21.2522L26.3204 21.9688C28.961 17.4086 28.3312 11.4735 24.4285 7.57074C20.4415 3.58375 14.3335 3.01192 9.73654 5.8538C9.61115 5.93269 9.46258 5.96637 9.31543 5.94928C9.16827 5.93219 9.03138 5.86534 8.92741 5.75981L8.85539 5.68779C8.78542 5.61786 8.73217 5.53302 8.6996 5.43961C8.66704 5.3462 8.656 5.24664 8.66733 5.14836C8.67865 5.05009 8.71204 4.95565 8.765 4.87209C8.81795 4.78854 8.8891 4.71803 8.97314 4.66584L8.97422 4.66404ZM6.79312 7.7425L5.29152 7.94344L3.78884 8.14293L4.64839 9.00248C1.47378 14.1429 2.11403 20.9714 6.57202 25.429C11.0372 29.8942 17.8823 30.5297 23.0259 27.3375C23.1098 27.2852 23.1809 27.2147 23.2337 27.1311C23.2866 27.0476 23.32 26.9531 23.3313 26.8549C23.3426 26.7567 23.3316 26.6572 23.2991 26.5638C23.2666 26.4704 23.2135 26.3855 23.1436 26.3155L23.0716 26.2435C22.9676 26.138 22.8307 26.0711 22.6835 26.0539C22.5363 26.0368 22.3876 26.0704 22.2621 26.1492C17.6659 28.9911 11.5579 28.4178 7.57021 24.4322C3.66748 20.5295 3.03768 14.5944 5.67826 10.0342L6.39485 10.7507L6.59435 9.24842L6.79348 7.74574L6.79312 7.7425Z"
    fill="#d0011b"
  />
</svg>
